<svg xmlns="http://www.w3.org/2000/svg" width="87.254" height="100" viewBox="0 0 87.254 100"><circle fill="#A7DCF8" cx="43.627" cy="56.373" r="43.627"/><circle fill="#88C1E0" cx="43.627" cy="55.702" r="33.759"/><path fill="#1F608F" d="M64.842 81.964c-5.797 4.688-13.18 7.498-21.215 7.498s-15.417-2.81-21.213-7.497h42.428z"/><path fill="#73A7C0" d="M9.986 58.556c-.052-.627-.087-1.26-.104-1.896.017.636.053 1.27.104 1.896zM15.72 74.7c-2.686-3.935-4.56-8.468-5.382-13.358.82 4.89 2.696 9.424 5.38 13.36zM9.954 53.318c.05-.705.12-1.406.21-2.1-.09.695-.162 1.395-.21 2.1zM10.338 61.342c-.155-.916-.272-1.846-.352-2.786.08.94.197 1.87.352 2.786zM66.614 80.42c.182-.168.36-.34.54-.51-.178.17-.358.342-.54.51z"/><path fill="#1F608F" d="M11.044 46.85c4.44-13.46 17.116-23.175 32.063-23.175 18.646 0 33.76 15.114 33.76 33.76 0 3.06-.41 6.024-1.175 8.844 1.098-3.328 1.693-6.883 1.693-10.576 0-18.645-15.114-33.76-33.76-33.76-16.712 0-30.587 12.147-33.28 28.095.182-1.083.417-2.147.7-3.19z"/><path fill="#73A7C0" d="M65.616 81.317c.26-.223.514-.45.766-.682-.252.232-.507.46-.766.682zM9.868 55.703c0-.348.008-.693.018-1.037-.01.344-.018.69-.018 1.037zM10.18 51.115c.045-.325.094-.65.147-.973-.054.323-.103.648-.147.973zM9.896 54.373c.01-.263.024-.524.04-.786-.015.262-.03.523-.04.786zM68.93 78.048c.202-.23.4-.46.597-.695-.196.234-.395.464-.598.695zM69.692 77.15c.18-.22.36-.44.535-.664-.175.224-.355.446-.535.665zM68.12 78.93c.243-.254.48-.514.716-.776-.234.263-.473.522-.716.777zM67.392 79.675c.192-.19.384-.386.57-.58-.187.194-.378.388-.57.58zM70.357 76.318c.445-.575.87-1.164 1.278-1.77-.406.606-.832 1.195-1.278 1.77zM74.436 69.518c.473-1.052.892-2.133 1.257-3.24-.366 1.107-.785 2.188-1.257 3.24zM73.95 70.553c.166-.34.328-.686.482-1.032-.154.347-.316.692-.483 1.033zM72.307 73.514c.592-.952 1.138-1.934 1.635-2.945-.497 1.01-1.044 1.99-1.635 2.944zM71.683 74.48c.188-.28.37-.565.55-.85-.18.285-.363.568-.55.85z"/><path fill="#BEBEC5" d="M26.64 41.238s-5.497-15.874-7.083-20.312C17.97 16.49 17.17 13.37 17.17 13.37S6.245 17.957 2.646 17.99c-3.6.03 4.374-9.33 7.333-11.306 2.958-1.976 6.89-5 10.738-1.61 3.852 3.39 7.295 25.252 6.753 34.107l-.83 2.058z"/><path fill="#CBD7DF" d="M26.083 40.128l.957-.805-7.008-26.89c-.655.348-2.862.938-2.862.938s.8 3.12 2.387 7.557c1.24 3.473 5.28 16.703 6.526 19.2z"/><path fill="#03394D" d="M31.853 47.132s-7.693 6.197-18.216 9.16c-.37.105-.75.6-.188 1.073 1.73 1.465 5.304 4.627 5.627 6 .428 1.82 5.97.973 7.096.89 1.126-.084 4.152 1.138 5.455-.762 1.306-1.9 5.817-5.262 5.74-8.033-.078-2.77-4.992-8.933-4.992-8.933l-.523.605zM70.646 44.14s-8.035-4.873-25.973.783c-17.938 5.655 12.94 14.15 12.94 14.15s3.893.792 4.152.36c.26-.432 3.046-5.01 3.744-6.394.696-1.383 5.136-8.9 5.136-8.9z"/><ellipse transform="rotate(-8.848 30.975 47.002)" fill="#03435C" cx="30.967" cy="47" rx="7.877" ry="6.071"/><path fill="#03435C" d="M29.983 53.898s-4.285.553-5.713-.745c-1.43-1.3-2.63-4.023-2.858-5.487-.28-1.805 1.484-2.986 2.92-4.498 1.392-1.465 3.38-2.462 5.6-2.808.566-.088 1.14-.132 1.703-.13 4.003.013 7.266 2.308 7.756 5.456.283 1.807-.353 3.633-1.788 5.145-1.39 1.466-3.38 2.463-5.6 2.81-.567.088-2.02.258-2.02.258z"/><path fill="#1C77B1" d="M23.685 51.02c.36.593.77 1.133 1.203 1.528 1.285 1.167 5.14.67 5.14.67s1.306-.153 1.814-.232c1.998-.312 3.786-1.21 5.038-2.527.317-.333.59-.685.818-1.048L23.685 51.02z"/><path fill="#BEBEC5" d="M33.24 46.703L22.957 67.62s9.928 8.602 11.228 8.087 5.122-4.4 5.122-4.4 3.73-2.41 5.724-3.01l14.74-7.656-5.652-21.175s-14.805 2.67-15.24 2.842c-.433.172-5.64 4.396-5.64 4.396z"/><path fill="#8A9198" d="M37.817 49.922l-3.13 5.01 5.6-5.825"/><g><path fill="#CBD7DF" d="M36.1 45.72s-.315-.318-.75-.712c-1.14.908-2.11 1.695-2.11 1.695l-6.773 13.782c.197.246.438.396.756.396 1.17.006 4.288-.894 4.288-.894l6.267-10.497-1.677-3.77z"/></g><g opacity=".55"><path fill="#73A7C0" d="M35.947 52.73s10.095 3.717 21.67.658l-3.11-14.053s-15.19 2.8-15.626 2.972c-.433.172-5.64 4.396-5.64 4.396l-2.537 5.16c.98-.183 2.875-.284 5.244.866z"/></g><g><path fill="#317386" d="M51.856 46.465s-.412 3.223-4.644 3.895c0 0 3.01-.127 3.093-7.028 0 0 .905 3.077.145 4.313 0 0 1.265-1.062 1.773-3.885l-.367 2.705z"/></g><g><path fill="#03435C" d="M42.092 52.438c-3.077-.298-6.396-4.122-6.396-4.122s-.94-4.957.523-6.498c1.41-1.485 3.425-2.498 5.674-2.847.572-.088 1.152-.133 1.723-.132 4.067.013 7.384 2.354 7.884 5.566.29 1.847.316 5.03-1.52 6.832-1.72 1.69-7.044 1.3-7.888 1.202z"/></g><g><path fill="#1C77B1" d="M37.753 49.56c1.155 1.01 2.837 2.212 4.447 2.368.78.09 5.7.45 7.292-1.11.75-.737 1.163-1.726 1.368-2.745L37.753 49.56z"/></g><g><path fill="#03435C" d="M36.15 48.77s1.308-1.62 1.245-2.01c-.064-.39-1.374-2.338-1.7-2.34-.056 0-.76.532-.94.52-.893.716-1.753 1.688-1.753 1.688l-1.006 2.11c.45-.258 2.385-1.102 4.155.033z"/></g><g><path fill="#8A9198" d="M57.15 41.5s3.802 1.484 5.356 2.874l-3.634-.444s2.765 1.567 3.626 2.61l-3.2-.358s3.713 2.87 3.884 3.215c.172.348-4.675.418-4.675.418l3.018 3.905-2.61 4.32-5.225-18.022 2.377-1.33L57.15 41.5z"/></g><path fill="#1F608F" d="M72.92 72.475c-.89-3.043-2.478-6.262-5.315-7.81 0 0-.56-14.633 3.01-20.594-5.707 7.88-24.36 11.063-29.74 11.83v.02s-1.298.208-.66 1.753l4.844 9.43-6.042.727s.655 4.042.612 7.48c-2.76 1.126-5.762 2.447-5.762 2.447s-3.982 2.692-5.23 4.43c-.737 1.027-6.732 1.304 6.506 1.62 13.968.335 22.96-.252 28.732-1.092 3.668-2.753 6.75-6.24 9.043-10.24z"/><path fill="#03435C" d="M32.964 86.804l1.612.442-.618-.504c.547.336 1.892.198 1.892.198l-.64-.282c.64.282 2.303.37 2.303.37-.792-.092-1.502-1.062-1.502-1.062 2.735 1.196 5.117-.182 5.117-.182-.44-.04-1.717-.605-1.717-.605 1.717.604 3.935-.67 3.935-.67-1.016.28-2.265-.026-2.265-.026.692.198 1.88-.33 2.384-.582.15-.073.24-.123.24-.123-.833.346-1.975-.58-1.975-.58.363.063 1-.14 1.464-.32.324-.124.565-.238.565-.238-.263.077-.482.11-.668.115-.77.02-.936-.472-.936-.472.88-1.97.974-4.575.98-5.402v-.27c-.004-.043-.01-.085-.012-.128-.19-5.085-1.95-8.915-1.95-8.915l-2.16.26s.656 4.043.612 7.48c-2.758 1.127-5.76 2.448-5.76 2.448s-1.075.727-2.28 1.667l-5.41.248-3.108.786 1.442 2.867.248.372c1.958 1.32 4.062 2.44 6.28 3.333-.042-.07-.064-.11-.064-.11.074.06.148.115.222.17.895.354 1.805.67 2.734.95-.512-.493-.966-1.24-.966-1.24z"/><g><path fill="#1F608F" d="M40.873 55.9v.02s-1.297.208-.658 1.753l4.843 9.43-6.04.727 2.16-.26c.196.344.398.734.6 1.16l4.997-.714-4.644-9.363c-1.293-1.82.526-1.688.526-1.688 21.434-3.047 26.386-9.768 27.17-10.56.374-1.257.234-1.41.787-2.335-5.706 7.88-24.358 11.063-29.74 11.83z"/></g><g><path fill="#1F608F" d="M69.82 46.4c.373-1.256.233-1.41.787-2.335-2.526 3.49-7.593 6.06-12.92 7.91l1.497 1.023c7.765-2.94 10.118-6.072 10.637-6.598z"/></g><path fill="#03435C" d="M72.92 72.475c-.89-3.043-2.478-6.262-5.315-7.81 0 0 0-.04-.004-.115v-.015-.06c-.052-1.718-.317-14.838 3.014-20.404-2.255 3.114-6.532 5.492-11.213 7.28.157.57.28.892.28.892s1.18 10.22-.043 13.504c0 0-5.892 1.713-7.97 2.053l6.11-.862c-1.326.34-2.998.744-3.87.852l6.393-.64-4.878.973 5.47-.114-4.023 1.105 4.61.08-2.704.848 2.965.142s-2.63.497-3.77.575c1.105.032 3.833.15 3.833.15l.437.978c.53 1.41 1.388 4.442 1.595 9.708-.05.376-.104.77-.163 1.15l.198-.03h.006c3.668-2.755 6.75-6.242 9.043-10.24z"/><g><path fill="#1F608F" d="M41.836 56.168s8.83.027 11.776-1c2.945-1.03.693-.172.693-.172l-11.61 2.732 8.66-1.012-7.623 1.88 5.54.02-6.063 1.02 5.194-.157-4.853 1.02 3.64-.16-3.47 1.72-3.506-4.386 1.622-1.506z"/></g><g><path fill="#E2C53D" d="M39.214 69.218l-.035-.257.77-.108.035.258-.77.108zM40.757 69l-.035-.258.77-.11.036.258-.77.11zm1.543-.22l-.035-.256.77-.11.037.258-.772.108zm1.543-.217l-.035-.26.77-.107.036.258-.77.11zm1.543-.22l-.035-.255.77-.11.038.258-.772.108zm1.212-.392l-.346-.695.232-.116.346.696-.232.115zm-.694-1.394l-.345-.698.23-.114.347.698-.233.114zm-.69-1.396l-.348-.698.233-.115.345.698-.23.115zm-.693-1.394l-.346-.7.233-.114.345.698-.23.116zm-.692-1.397l-.346-.7.23-.115.35.698-.234.116zm-.692-1.397l-.347-.698.23-.116.348.698-.232.115zm-.693-1.396l-.347-.7.233-.114.345.7-.232.114zm-.675-1.422c-.08-.227-.12-.43-.12-.6 0-.086.01-.167.03-.24l.25.07c-.014.052-.02.107-.02.17 0 .142.035.315.104.514l-.244.085zm.88-1.057l-.017-.004c-.005 0-.1-.016-.217-.012l-.012-.26c.12-.005.218.008.26.014.165-.016.336-.03.51-.05l.027.257c-.18.02-.357.038-.532.053l-.016.002zm1.33-.15l-.036-.257c.25-.032.508-.07.77-.11l.04.256c-.265.04-.522.08-.775.113zm1.544-.24l-.045-.256c.254-.044.51-.09.766-.14l.05.254c-.26.05-.517.097-.77.142zm1.538-.293l-.053-.254c.254-.05.508-.103.763-.158l.056.252c-.257.057-.513.11-.766.16zm1.527-.33l-.058-.252c.252-.056.506-.116.76-.176l.06.253c-.255.06-.51.12-.763.176zm1.52-.358l-.063-.25.757-.19.064.253c-.25.064-.503.126-.757.187zm1.516-.382l-.066-.25c.254-.066.506-.133.754-.2l.067.25c-.248.068-.5.134-.754.2zm1.508-.404l-.067-.25.752-.207.07.25c-.246.07-.497.14-.754.208zm1.505-.42l-.07-.25c.257-.072.507-.146.75-.216l.07.25-.75.217zm1.5-.438l-.074-.25c.264-.078.515-.15.75-.223l.074.246-.748.226zm1.497-.453l-.078-.25.745-.233.078.248c-.215.066-.465.146-.746.234zm1.492-.475l-.08-.247.1-.033.082.247-.102.033z"/></g><g><path fill="#E3EAEC" d="M31.196 59.43l-2.153.332s2.598-.338 3.634.705c0 0 2.51-2.725 4.98-.76-.588-.867-1.588-1.437-2.723-1.44-.774-.003-1.486.26-2.05.7l-.008-.006c-.017.02-.034.035-.052.053-.056.046-.106.093-.16.142-.605.458-1.41.267-1.41.267l-.02.017-.038-.01z"/></g><g><path fill="#CB7A1B" d="M62.096 31.863s-3.145-2.264-9.104-1.866l1.6 5.988 7.978-.254-.474-3.867z"/><path fill="#EAB41E" d="M22.932 38.03s-4.147 1.104-5.93 2.77c-1.668 1.56-3.103 4.217 1.66 5.467 2.55.668 12.902 2.607 22.7.903 9.713-1.69 14.316-3.883 17.754-6 3.637-2.236 4.19-4.08 3.997-5.496-.195-1.415-2.502-1.288-4.93-1.863-2.43-.574-3.803-.99-3.803-.99l-31.448 5.21z"/><path fill="#FCC220" d="M22.932 38.03s-4.147 1.104-5.93 2.77c-1.668 1.56-3.103 4.217 1.66 5.467 2.55.668 12.902 2.607 22.7.903 9.713-1.69 14.316-3.883 17.754-6 3.637-2.236 4.19-4.08 3.997-5.496-.195-1.415-2.502-1.288-4.93-1.863-2.43-.574-3.803-.99-3.803-.99l-31.448 5.21z"/><path fill="#EC9E1E" d="M63.113 35.674c-.195-1.415-2.502-1.288-4.93-1.863-2.43-.574-3.803-.99-3.803-.99l-30.78 5.1v2.756l7.142 7.14c3.337.115 7.016-.018 10.62-.645 9.713-1.688 14.316-3.882 17.754-5.998 3.637-2.238 4.19-4.082 3.997-5.498z"/><path fill="#EBD474" d="M60.522 39.813c-.23.157-.477.316-.738.48-3.438 2.115-8.042 4.308-17.754 5.997-9.8 1.702-20.15-.235-22.7-.903-1.79-.47-2.703-1.137-3.06-1.87-.092-.187-.143-.376-.165-.57 0 .267.054.53.18.786.355.733 1.27 1.4 3.06 1.87 2.55.668 12.9 2.607 22.7.903 9.713-1.688 14.315-3.882 17.753-5.998.263-.162.508-.32.738-.48l-.014-.215z"/><path fill="#FCC220" d="M57.43 38.842S54.77 25.62 54.22 23.8c-.547-1.818-.93-3.82-2.903-4.65-1.977-.83-2.802-1.497-6.922-.913-4.12.583-8.986 2.215-8.986 2.215s-1.434-.73-2.67-1.128c-1.234-.4-1.81-.498-2.285-.157-.475.342-.928 1.54-1.283 2.594-.357 1.056-3.732 10.66-4.322 12.487-.588 1.825-1.135 6.43-1.135 6.43l33.712-1.835z"/><path fill="#EC9E1E" d="M54.222 23.8c-.547-1.818-.93-3.82-2.903-4.65-1.977-.83-2.802-1.497-6.922-.913-4.12.583-8.986 2.215-8.986 2.215l-.026-.014-3.3 20.756 25.344-2.352S54.77 25.62 54.222 23.8z"/><path fill="#3283C2" d="M24.4 34.93s7.193.824 13.955.374c7.147-.478 13.92-1.27 17.737-3.176 0 0 1.305 2.524 1.706 5.864 0 0-3.765 2.176-11.857 3.403-7.852 1.19-12.373.96-17.023.516-4.052-.388-5.616-1.068-5.98-1.18-.363-.114 1.462-5.8 1.462-5.8z"/><path fill="#EC9E1E" d="M35.41 20.45s-3.45-1.144-4.265-.54c-.81.604-1.33 2.425 4.266.54z"/><path fill="#4F9DD7" d="M47.67 34.247s1.07 3.96 1.3 6.74l3.547-.833s-.11-3.063-1.428-6.5l-3.42.593z"/><path fill="#D78F1B" d="M53.02 44.212c2.64-1.052 4.804-2.113 6.097-3.04 3.47-2.49 4.19-4.082 3.997-5.498-.137-.99.264-2.514-1.018-3.81 1.138 4.8-8.126 11.75-9.077 12.348z"/><g><path fill="#4F9DD7" d="M42.797 38.89c.096 0 .164-.005.196-.02.056-.023-.025-.012-.196.02z"/></g></g><g><path fill="#6CAFD3" d="M37.7 64.997l.01-.007c-.455-.89.15-1.988.15-1.988l-.02.007c.235-.447.37-.95.372-1.487.005-1.793-1.462-3.25-3.278-3.257-.774-.002-1.486.26-2.05.7l-.008-.005c-.017.02-.034.035-.052.053-.056.046-.106.093-.16.142-.605.458-1.41.267-1.41.267l-.02.017c-4.258-.985-8.685.562-8.685.562-.938.205-1.87-.027-2.468-.245-.19-.106-.395-.195-.607-.263l-.04-.02-.007.008c-.298-.09-.616-.14-.946-.143-1.816-.006-3.294 1.442-3.3 3.235-.004 1.265.727 2.358 1.793 2.898.974.64.476 1.563.476 1.563l.023.007c-.094.245-.143.388-.143.388l-1.572 4.41c-1.607 5.037 3.004 4.15 3.004 4.15l1.73 4.607.773 1.476c-2.257 1.81.246 4.24.246 4.24-.514-1.212.355-2.16.355-2.16-.87 1.64.856 2.512.856 2.512-.43-.78.095-2.077.095-2.077-.438 1.643 1.03 2.427 1.03 2.427-.43-.606-.34-1.992-.34-1.992.34 1.992 1.812 2.083 1.812 2.083-.69-.607-.6-2.078-.6-2.078.254 1.905 2.33 2.17 2.33 2.17-.603-.435-1.03-2.08-1.03-2.08.428 1.387 1.812 1.305 1.812 1.305-.78-.35-1.295-1.563-1.295-1.563 1.727 1.736 3.457 1.916 3.457 1.916-.692-.176-1.465-1.823-1.465-1.823l1.555.61-.56-.564c.507.39 1.86.395 1.86.395l-.605-.35c.605.35 2.25.615 2.25.615-.78-.176-1.384-1.216-1.384-1.216 2.594 1.48 5.106.362 5.106.362-.433-.088-1.642-.784-1.642-.784 1.64.784 3.982-.247 3.982-.247-1.04.17-2.25-.267-2.25-.267.864.35 2.686-.426 2.686-.426-.866.258-1.902-.784-1.902-.784.605.175 2.08-.34 2.08-.34-1.388.255-1.558-.523-1.558-.523 1.305-2.246 1.576-5.536 1.576-5.536.185-4.98-.77-8.478-2.02-10.903z"/><path fill="#B2BAC4" d="M27.832 86.42c-.778-.348-1.294-1.562-1.294-1.562 1.727 1.736 3.457 1.916 3.457 1.916-.692-.176-1.465-1.823-1.465-1.823l1.555.61-.56-.563c.507.39 1.86.396 1.86.396l-.605-.35c.605.35 2.25.615 2.25.615-.78-.176-1.384-1.216-1.384-1.216 2.594 1.48 5.106.362 5.106.362-.432-.088-1.64-.784-1.64-.784 1.64.784 3.98-.247 3.98-.247-1.038.17-2.25-.267-2.25-.267.865.35 2.687-.426 2.687-.426-.867.258-1.903-.784-1.903-.784.605.175 2.08-.34 2.08-.34-1.388.255-1.558-.523-1.558-.523 1.304-2.246 1.575-5.536 1.575-5.536.078-2.17-.06-4.062-.343-5.704-.307.765-.95 1.884-.95 1.884s-2.345 3.723-2.475 3.895c-.13.173-1.345 1.166-1.345 1.166l-6.02.37-6.056-.367-3.175.453 1.13 3.004.773 1.476c-2.257 1.81.246 4.24.246 4.24-.516-1.212.353-2.16.353-2.16-.87 1.64.856 2.512.856 2.512-.43-.78.093-2.077.093-2.077-.438 1.643 1.03 2.427 1.03 2.427-.43-.606-.34-1.992-.34-1.992.34 1.992 1.812 2.083 1.812 2.083-.69-.607-.6-2.078-.6-2.078.254 1.905 2.33 2.17 2.33 2.17-.603-.435-1.03-2.08-1.03-2.08.432 1.385 1.817 1.303 1.817 1.303z"/><path fill="#8A9198" d="M38.435 72.077s1.15 3.812-3.416 6.236c0 0-3.726 2.223-9.604 1.04 0 0-1.615-1.214-1.638-1.35s-.085-1.893-.016-2.097c.068-.206 1.667-.908 1.667-.908l3.282-.263 5.84-1.075 3.883-1.583z"/><path fill="#EFEEDB" d="M37.044 73.877C33.218 77.837 25.44 75.8 25.44 75.8c-.755-.352-1.445-.573-2.075-.703-.298.16-.497.272-.497.293 0 .087 2.825 3.645 2.825 3.645 4.414.295 6.47-.217 6.47-.217 5.917-1.7 5.954-5.532 5.916-6.183-.556.793-1.036 1.242-1.036 1.242z"/><path fill="#CCCCD4" d="M25.59 77.237c-.017.215-.07.965-.112 1.526l.215.27c.3.02.587.037.865.05v-.003c-.37-.022-.346-.348-.346-.348l-.222-2.81c-.188-.037-.326-.068-.422-.092.017.505.036 1.202.02 1.407zM28.497 79.125c.267-.002.518-.006.754-.014-.108-.01-.27-.074-.27-.348l-.228-2.476-.217-.016v.002l.23 2.533c0 .002-.002.25-.268.32zM31.34 78.598s.1.282-.17.378c.323-.038.564-.076.73-.105l.004-.01s-.325.064-.346-.304l-.305-2.287-.22.015.308 2.313zM33.897 77.827s.145.242-.073.394c.215-.094.42-.19.615-.292-.09.02-.285.036-.358-.24l-.604-1.804c-.073.02-.146.04-.22.058l.64 1.885z"/><path fill="#F3D3AC" d="M36.694 76.213s-.188.204-.367-.118l-.702-1.105c-.063.04-.127.078-.19.115l.747 1.168s.23.227-.008.436l.02.024c.186-.168.352-.338.503-.51l-.003-.01z"/><path fill="#FFF" d="M25.705 75.183s-1.598-1.715-1.856-1.716c-.262 0-5.713-.58-5.846.155-.13.734.76 2.368.76 2.368l-.39 4.038s-.132.52.603.52l1.9.02v-.006s.58.034.64-.555h.175s.007.598.65.576l2.716.072s.93.068 1.02-.625l-.373-4.847z"/><path fill="#CCCCD4" d="M37.044 73.877c-3.366 3.484-9.79 2.326-11.287 1.997l-.052-.69s-1.598-1.716-1.856-1.717c-.262 0-5.713-.58-5.846.155-.13.734.76 2.368.76 2.368l-.097.99c.71-.445 3.36-1.77 7.71-.053 0 0 5.016 1.11 9.466.102 2.25-1.79 2.263-3.925 2.235-4.396-.554.794-1.034 1.243-1.034 1.243z"/><path fill="#D0E2EB" d="M25.438 75.8s7.78 2.037 11.605-1.923c0 0 1.578-1.475 2.316-3.81-.37-2.063-.97-3.73-1.66-5.07l.008-.007c-.454-.89.15-1.988.15-1.988l-.02.007c.236-.447.372-.95.373-1.487.006-1.793-1.46-3.25-3.277-3.257-.774-.002-1.486.26-2.05.7l-.008-.005c-.017.02-.034.035-.052.053-.056.046-.106.093-.16.142-.605.458-1.41.267-1.41.267l-.02.017c-4.258-.985-8.685.562-8.685.562-.937.205-1.87-.027-2.467-.245-.19-.106-.394-.195-.606-.263l-.04-.02-.007.008c-.298-.09-.616-.14-.946-.143-1.815-.006-3.293 1.442-3.3 3.235-.003 1.265.728 2.358 1.794 2.898.974.64.476 1.563.476 1.563l.022.007c-.094.245-.143.388-.143.388l-1.573 4.41c-1.607 5.037 3.004 4.15 3.004 4.15s2.34-2.218 6.678-.19z"/><path fill="#CCCCD4" d="M25.438 75.8s7.78 2.037 11.605-1.923c0 0 1.578-1.475 2.316-3.81-.37-2.063-.97-3.73-1.66-5.07l.008-.007c-.454-.89.15-1.988.15-1.988l-.02.007c.236-.447.372-.95.373-1.487.006-1.793-1.46-3.25-3.277-3.257-.774-.002-1.486.26-2.05.7l-.008-.005c-.017.02-.034.035-.052.053-.056.046-.106.093-.16.142-.605.458-1.41.267-1.41.267l-.02.017c-4.258-.985-8.685.562-8.685.562-.937.205-1.87-.027-2.467-.245-.19-.106-.394-.195-.606-.263l-.04-.02-.007.008c-.298-.09-.616-.14-.946-.143-1.815-.006-3.293 1.442-3.3 3.235-.003 1.265.728 2.358 1.794 2.898.974.64.476 1.563.476 1.563l.022.007c-.094.245-.143.388-.143.388l-1.573 4.41c-1.607 5.037 3.004 4.15 3.004 4.15s2.34-2.218 6.678-.19z"/><path fill="#CCCCD4" d="M37.657 59.705c-.588-.865-1.588-1.435-2.723-1.44-.774 0-1.486.262-2.05.702l-.008-.006c-.017.02-.034.035-.052.053-.056.046-.106.093-.16.142-.605.458-1.41.267-1.41.267l-.02.017c-4.258-.985-8.685.562-8.685.562-.938.205-1.87-.027-2.468-.245-.19-.106-.395-.195-.607-.263l-.04-.02-.007.008c-.298-.09-.616-.14-.946-.143-.153 0-.305.014-.453.033-.837 1.243-1.766 2.82-2.59 4.465.3.707.848 1.288 1.535 1.636.974.64.476 1.563.476 1.563l.023.007c-.094.245-.143.388-.143.388l-1.572 4.41c-.27.844-.36 1.518-.332 2.06.914.848 1.997 1.555 2.987 2.134.214-.018.35-.043.35-.043s2.336-2.218 6.675-.19c0 0 1.404.366 3.313.487-2.37-10.146 1.58-13.405 1.58-13.405l.952.09c.97-5.28 6.375-3.27 6.375-3.27z"/><path fill="#E3EAEC" d="M30.332 62.882s4.667 2.44 3.944 11.96l-8.57.34s-.603-1.755-.6-2.62c.003-.865.88-4.5 1.576-5.708.697-1.21 3.65-3.972 3.65-3.972z"/><path fill="#8A9198" d="M37.7 64.997l.01-.007c-.455-.89.15-1.988.15-1.988l-.02.007c.235-.447.37-.95.372-1.487.003-.672-.203-1.297-.556-1.816 0 0-5.235-.625-4.73 3.532 0 0 2.043 1.88 5.452 3.272-.21-.546-.437-1.052-.677-1.515z"/><g><ellipse transform="translate(.187 -.103)" fill="#03435C" cx="34.489" cy="62.074" rx="1.785" ry="1.719"/></g><g><path fill="#E3EAEC" d="M22.25 72.683s-1.604-11.095 4.562-13.516c-2.435.196-4.263.834-4.263.834s-3.098.774-5.077 7.042c-.094.245-.143.388-.143.388l-1.572 4.41c-1.607 5.036 3.004 4.15 3.004 4.15s2.337-2.218 6.676-.19c0 0 7.78 2.037 11.605-1.923 0 0-9.355 3.106-14.794-1.194z"/></g><g><path fill="#E3EAEC" d="M32.077 59.417c-.437.096-.82.004-.82.004l-.023.018c-4.257-.984-8.684.563-8.684.563-.1.022-.2.037-.298.05-.403.744-.792 1.484-1.094 2.024-.87 1.556-1.32 6.4.944 2.427 2.264-3.975 9.97-4.987 9.97-4.987l.005-.096z"/></g><g><path fill="#E3EAEC" d="M23.235 61.907s4.332-1.11 8.048 1.064c0 0-7.7-1.148-9.872.923l1.825-1.986z"/></g></g><g><path fill="#BEBEC5" d="M51.42 40.914S49.8 21.6 49.2 16.926c-.603-4.673-.69-7.377-.69-7.377s-14.99 5.586-16.062 4.095c-.77-1.07 5.758-7.93 8.505-10.188C44.6.457 51.27-1.7 53.947 1.827c1.68 2.213 1.283 8.6 1.017 15.253-.226 5.626.746 19.858-.428 23.92 0 0-1.214.79-1.812.692-.598-.097-1.305-.778-1.305-.778z"/><path fill="#CBD7DF" d="M52.884 17.46c-.104-3.176-.166-6.505-.73-9.543-1.395.688-3.44 1.53-3.662 1.632.027.622.188 3.338.708 7.376.6 4.674 2.176 23.944 2.176 23.944s.75.725 1.35.822c.025.005.05 0 .076.003.397-1.695.193-20.775.082-24.236z"/></g></svg>